<svg width="403" height="108" viewBox="0 0 403 108" fill="none" xmlns="http://www.w3.org/2000/svg">
<path fill-rule="evenodd" clip-rule="evenodd" d="M359.185 52.2006L396.725 8.94299C398.978 6.66224 398.113 4.52832 395.169 4.52832H378.699C373.815 4.52429 369.041 8.23381 365.915 11.6753C360.101 18.2453 357.449 26.316 354.756 34.5105L354.756 34.511C353.893 37.1369 353.026 39.7754 352.049 42.3814C355.821 44.2712 358.557 47.8978 359.185 52.2006ZM361.261 37.5533L361.264 37.5247L361.264 37.5235C361.432 35.3095 361.601 33.0917 361.873 30.8771C362.906 23.7983 365.432 17.2395 370.212 11.8294C368.054 16.0541 366.234 20.4838 365.167 25.1142L371.77 17.9096L364.609 27.8813C364.415 28.9512 364.25 30.026 364.116 31.1058L371.874 22.5092L363.79 33.6433C363.79 33.6433 363.474 36.6649 363.468 36.7286L372.471 26.6156L363.147 39.2013C362.996 40.3487 362.797 41.4897 362.566 42.6238L372.538 31.2967L361.747 45.708C361.161 47.634 360.341 49.4833 359.302 51.2134C360.563 46.7209 360.912 42.1457 361.261 37.5533ZM333.066 56.4646L295.467 99.7835C293.253 102.227 294.573 104.14 297.065 104.155H312.435C317.884 104.16 322.73 100.959 326.32 97.0085C332.196 90.3673 334.971 82.0193 337.753 73.6508C338.61 71.0721 339.468 68.4915 340.418 65.9582C336.634 64.1779 333.838 60.671 333.066 56.4646ZM326.025 87.4036C324.919 90.644 323.582 93.8018 322.022 96.8543C326.386 91.9151 328.964 85.9478 330.101 79.4979C330.55 76.6515 330.773 73.7824 330.996 70.9157L330.997 70.9005C331.348 66.3848 331.698 61.8754 332.932 57.4703C331.895 59.2004 331.073 61.0497 330.489 62.9758L319.696 77.387L329.668 66.06C329.587 66.4647 329.184 68.7466 329.088 69.4824L319.764 82.0682L328.766 71.9551C328.76 72.0178 328.443 75.0494 328.443 75.0494L320.36 86.1746L328.119 77.578C327.984 78.6578 327.82 79.7326 327.626 80.8014L320.464 90.7742L327.067 83.5695C326.769 84.8651 326.434 86.1447 326.025 87.4036ZM342.951 66.8486L348.262 76.9227C348.759 78.0274 349.597 78.5793 350.778 78.5793H362.331C363.872 78.5793 365.257 76.8138 364.567 75.3587L357.338 61.0155C355.004 64.7399 350.839 67.2194 346.089 67.2194C345.007 67.2194 343.957 67.091 342.951 66.8486ZM335.292 51.9247L326.249 33.9798C325.748 32.4833 326.798 30.7592 328.485 30.7592H340.039C341.219 30.7592 342.058 31.3121 342.555 32.4157L348.397 43.4971C353.343 44.555 357.048 48.9021 357.048 54.1032C357.048 60.0969 352.128 64.956 346.059 64.956C339.991 64.956 335.07 60.0969 335.07 54.1032C335.07 53.3576 335.147 52.6287 335.292 51.9247ZM346.087 58.3384C348.46 58.3384 350.384 56.4405 350.384 54.0993C350.384 51.7581 348.46 49.8603 346.087 49.8603C343.714 49.8603 341.79 51.7581 341.79 54.0993C341.79 56.4405 343.714 58.3384 346.087 58.3384ZM135.308 23.3573C135.679 23.7886 136.205 24.0043 136.885 24.0043H148.48C149.16 24.0043 149.779 23.7886 150.335 23.3573C150.892 22.8644 151.201 22.279 151.263 21.6012L153.211 13.0053C153.334 12.3275 153.211 11.7729 152.84 11.3416C152.469 10.8486 151.943 10.6021 151.263 10.6021H139.668C139.05 10.6021 138.431 10.8486 137.813 11.3416C137.256 11.7729 136.916 12.3275 136.792 13.0053L134.937 21.6012C134.813 22.279 134.937 22.8644 135.308 23.3573ZM123.621 78.0749C123.992 78.5064 124.517 78.7221 125.198 78.7221H136.792C137.473 78.7221 138.06 78.5064 138.555 78.0749C139.111 77.6437 139.452 77.0893 139.575 76.4114L148.851 32.9699C148.975 32.292 148.851 31.7374 148.48 31.3061C148.171 30.8749 147.676 30.659 146.996 30.659H135.401C134.721 30.659 134.102 30.9056 133.546 31.3986C132.989 31.8298 132.649 32.3535 132.525 32.9699L123.342 76.4114C123.219 77.0276 123.311 77.5822 123.621 78.0749ZM7.46282 78.2594C7.77201 78.5675 8.2049 78.7217 8.76144 78.7217H19.9029C21.3871 78.7217 22.562 78.0438 23.4278 76.6884L28.2796 67.7226H56.878L58.6482 76.5035C58.8954 77.9824 59.5283 78.7217 61.198 78.7217L72.3697 78.9066C73.0498 78.9066 73.6065 78.6602 74.0394 78.1673C74.4723 77.6743 74.6578 76.9964 74.5958 76.1337L62.7917 16.3148C62.5442 14.5278 61.4929 13.6344 59.6378 13.6344H44.7107C42.9173 13.6344 41.495 14.5278 40.4437 16.3148L7.27731 75.9488C7.0918 76.3186 6.99902 76.6574 6.99902 76.9655C6.99902 77.4584 7.15364 77.8899 7.46282 78.2594ZM55.2243 54.0431L35.7113 54.0429L50.2148 28.0335L55.2243 54.0431ZM86.9658 78.7221C86.0999 78.7221 85.4816 78.5372 85.1106 78.1674C84.8014 77.7361 84.554 77.1507 84.3685 76.4114L75.7953 33.3394C75.6716 32.5384 75.7954 31.8915 76.1665 31.3986C76.5994 30.9056 77.2796 30.659 78.2071 30.659H87.6549C88.4587 30.659 89.0154 30.8439 89.3246 31.2137C89.6955 31.5835 89.974 32.1071 90.1594 32.785L95.9006 60.8461L110.24 32.6001C110.982 31.3061 112.002 30.659 113.169 30.659L124.625 30.659C125.181 30.659 125.614 30.8132 125.923 31.1213C126.233 31.3679 126.387 31.7374 126.387 32.2304C126.387 32.6001 126.233 33.0314 125.923 33.5243L103.361 76.4114C102.866 77.1508 102.341 77.7362 101.784 78.1674C101.289 78.5372 100.609 78.7221 99.7435 78.7221L86.9658 78.7221ZM154.293 75.4867C157.138 78.2595 160.497 79.646 165.692 79.646C168.969 79.646 172.086 79.153 173.854 78.1671C176.019 77.1197 178.579 75.5791 180.744 73.5458L180.094 76.4111C179.971 77.0273 180.094 77.5819 180.465 78.0746C180.836 78.5061 181.362 78.7218 182.042 78.7218H193.081C193.699 78.7218 194.287 78.5061 194.843 78.0746C195.4 77.6434 195.74 77.089 195.863 76.4111L205.139 32.9696C205.263 32.3532 205.139 31.8295 204.768 31.3983C204.397 30.9053 203.871 30.6587 203.191 30.6587H192.246C191.566 30.6587 190.947 30.8746 190.391 31.3058C189.896 31.7371 189.587 32.2917 189.463 32.9696L188.906 35.2802C187.608 33.4933 185.969 32.1376 183.99 31.2134C182.011 30.2274 178.894 29.7345 175.431 29.7345C169.185 29.7345 164.713 31.6446 160.693 35.4651C156.674 39.2239 153.767 44.5231 151.974 51.3628L150.583 57.9252C150.273 59.5273 150.119 61.3759 150.119 63.471C150.119 68.6469 151.51 72.6523 154.293 75.4867ZM179.934 64.303C178.264 65.9665 175.277 66.7985 172.556 66.7985C170.453 66.7985 168.969 66.2748 168.103 65.2272C167.238 64.1795 166.805 62.6699 166.805 60.6981C166.805 59.7122 166.897 58.6648 167.083 57.5557C167.269 55.8302 167.67 53.9201 168.289 51.825C169.154 48.929 170.36 46.6798 171.906 45.0777C173.452 43.414 175.951 42.5822 178.61 42.5822C180.774 42.5822 182.747 43.1366 183.737 44.2457C184.726 45.3551 185.221 46.8647 185.221 48.7748C185.221 49.2061 185.159 49.9149 185.036 50.9006C184.726 52.9341 184.232 55.2448 183.552 57.8328C182.871 60.4207 181.665 62.5775 179.934 64.303ZM214.893 65.782C214.893 74.4087 220.674 78.7219 232.238 78.7219H240.123C240.741 78.7219 241.329 78.5063 241.885 78.0748C242.442 77.6435 242.782 77.0891 242.906 76.4113L244.761 67.9078C244.885 67.2299 244.761 66.6755 244.39 66.244C244.081 65.751 243.586 65.5047 242.906 65.5047H235.392C233.97 65.5047 232.95 65.2273 232.331 64.6727C231.775 64.1182 231.496 63.2555 231.496 62.0847C231.496 61.0373 231.62 59.9896 231.868 58.9423L235.207 43.2292H247.669C248.287 43.2292 248.875 43.0136 249.431 42.5824C249.988 42.1509 250.328 41.5964 250.451 40.9186L252.121 32.9697C252.245 32.2919 252.121 31.7372 251.75 31.306C251.441 30.8747 250.946 30.6588 250.266 30.6588H237.897L241.143 15.4082C241.267 14.792 241.143 14.2682 240.772 13.8369C240.463 13.3439 239.968 13.0975 239.288 13.0975H227.879C227.26 13.0975 226.673 13.3131 226.116 13.7445C225.56 14.1758 225.22 14.7304 225.096 15.4082L221.849 30.6588H214.522C213.841 30.6588 213.223 30.9055 212.666 31.3984C212.11 31.8297 211.77 32.3534 211.646 32.9697L209.937 40.9186C209.751 41.5347 209.844 42.0894 210.215 42.5824C210.586 43.0136 211.112 43.2292 211.792 43.2292H219.159L215.542 60.3287C215.109 62.2388 214.893 64.0565 214.893 65.782ZM251.285 78.0749C251.656 78.5064 252.182 78.7221 252.862 78.7221H264.182C264.861 78.7221 265.481 78.5064 266.036 78.0749C266.594 77.6437 266.934 77.0893 267.058 76.4114L272.067 53.1193C272.56 50.6545 273.611 48.7444 275.22 47.3887C276.827 46.033 278.868 45.3554 281.342 45.3554H290.712C291.392 45.3554 292.009 45.1395 292.567 44.7083C293.122 44.2153 293.432 43.6606 293.494 43.0445L295.626 32.9699C295.75 32.292 295.626 31.7374 295.257 31.3061C294.947 30.8749 294.483 30.659 293.864 30.659H288.486C285.27 30.659 282.547 31.1829 280.323 32.2303C278.097 33.2162 276.177 34.6644 274.571 36.5745L275.312 33.0623C275.436 32.3845 275.312 31.8298 274.943 31.3986C274.633 30.9056 274.137 30.659 273.457 30.659H263.065C262.386 30.659 261.766 30.9056 261.211 31.3986C260.653 31.8298 260.313 32.3845 260.189 33.0623L251.007 76.4114C250.883 77.0276 250.976 77.5822 251.285 78.0749ZM305.761 23.3573C306.13 23.7886 306.656 24.0043 307.338 24.0043H318.932C319.611 24.0043 320.231 23.7886 320.786 23.3573C321.344 22.8644 321.652 22.279 321.714 21.6012L323.663 13.0053C323.786 12.3275 323.663 11.7729 323.291 11.3416C322.921 10.8486 322.396 10.6021 321.714 10.6021H310.12C309.502 10.6021 308.882 10.8486 308.265 11.3416C307.707 11.7729 307.367 12.3275 307.243 13.0053L305.389 21.6012C305.265 22.279 305.389 22.8644 305.761 23.3573ZM293.882 77.6931C293.984 77.9592 294.157 78.1978 294.389 78.3632C294.724 78.6025 295.145 78.7221 295.651 78.7221H301.55C303.198 78.7221 304.765 78.0089 305.848 76.7663L310.318 71.6352C310.953 70.906 311.392 70.0272 311.594 69.0814L319.305 32.9699C319.429 32.292 319.305 31.7374 318.933 31.3061C318.623 30.8749 318.13 30.659 317.448 30.659H305.854C305.174 30.659 304.554 30.9056 303.999 31.3986C303.441 31.8298 303.101 32.3535 302.978 32.9699L293.796 76.4114C293.703 76.8733 293.731 77.3006 293.882 77.6931Z" fill="white" fill-opacity="0.98"/>
</svg>
