<svg width="276" height="46" fill="none" xmlns="http://www.w3.org/2000/svg"><g clip-path="url(#clip0_37_394)"><path d="M37.16.983H7.5a7.5 7.5 0 00-7.5 7.5v29.99a7.5 7.5 0 007.5 7.5h29.66a7.5 7.5 0 007.5-7.5V8.483a7.5 7.5 0 00-7.5-7.5z" fill="#ED1438"/><path d="M60.33 33.983c.002.344.073.684.21 1 .136.308.325.59.56.83.245.234.534.418.85.54a2.68 2.68 0 002.87-.54c.24-.238.434-.52.57-.83a2.54 2.54 0 00.2-1v-21a2.512 2.512 0 00-.77-1.83 2.39 2.39 0 00-.82-.57 2.7 2.7 0 00-2 0c-.32.126-.609.316-.85.56a2.7 2.7 0 00-.56.83c-.138.316-.21.656-.21 1l-.05 21.01zm13.61.14a2.69 2.69 0 00.21 1.07c.132.321.33.61.58.85.254.233.544.422.86.56a2.61 2.61 0 001.06.21 2.662 2.662 0 001-.21 3.16 3.16 0 00.87-.56 2.621 2.621 0 00.79-1.92v-13a6.18 6.18 0 011.14-4.14 3.999 3.999 0 013.14-1.25 3.669 3.669 0 013.11 1.39 6.29 6.29 0 011.08 3.93v13.07a2.688 2.688 0 00.8 1.92c.246.241.539.432.86.56a2.66 2.66 0 001 .21 2.83 2.83 0 001.93-.77c.244-.245.441-.533.58-.85a2.54 2.54 0 00.22-1.07v-13.06a13.901 13.901 0 00-.67-4.47 9.6 9.6 0 00-1.94-3.38 8.45 8.45 0 00-3.06-2.15 10.34 10.34 0 00-4.08-.76 9.74 9.74 0 00-4 .79 8.39 8.39 0 00-3 2.17 9.548 9.548 0 00-1.86 3.29 12.997 12.997 0 00-.64 4.17l.02 13.4zm30.2-23.82h-.27a1.273 1.273 0 00-.27.05l-.22.06a2.772 2.772 0 00-1.84 2.57v21a2.69 2.69 0 00.21 1.07 3 3 0 00.59.87c.246.248.538.445.86.58a2.59 2.59 0 001 .21 2.716 2.716 0 002.46-1.66c.139-.34.207-.703.2-1.07v-6.13h6.22a2.493 2.493 0 001-.22c.322-.14.614-.34.86-.59.248-.252.448-.546.59-.87a2.74 2.74 0 00.21-1.08 2.715 2.715 0 00-.21-1.06 2.901 2.901 0 00-.59-.87 2.732 2.732 0 00-.86-.59 2.49 2.49 0 00-1-.22H107v-6.55h8.92a2.674 2.674 0 001.05-.22 2.76 2.76 0 00.85-.59c.242-.252.435-.547.57-.87.136-.336.204-.697.2-1.06a2.76 2.76 0 00-.77-1.95 2.593 2.593 0 00-.85-.59 2.497 2.497 0 00-1.05-.22h-11.78zM125 33.983c.002.344.073.684.21 1a2.474 2.474 0 001.4 1.37 2.73 2.73 0 002 0c.308-.127.589-.31.83-.54a2.639 2.639 0 00.77-1.83v-21a2.627 2.627 0 00-1.6-2.41 2.73 2.73 0 00-2 0 2.622 2.622 0 00-1.61 2.41v21zm13.6.14a2.69 2.69 0 00.21 1.07c.135.319.332.608.58.85.254.233.544.422.86.56a2.76 2.76 0 002.11 0 3 3 0 00.87-.56c.251-.24.449-.529.58-.85a2.69 2.69 0 00.21-1.07v-13a6.183 6.183 0 011.1-4.09 3.994 3.994 0 013.14-1.25 3.704 3.704 0 013.11 1.39 6.292 6.292 0 011.08 3.93v13.02c-.005.369.07.734.22 1.07.139.317.336.605.58.85.25.238.542.427.86.56.317.134.656.205 1 .21.364.001.724-.07 1.06-.21a3 3 0 00.87-.56 3 3 0 00.58-.85c.15-.336.226-.701.22-1.07v-13.06a14.18 14.18 0 00-.67-4.47 9.602 9.602 0 00-1.94-3.38 8.571 8.571 0 00-3.07-2.15 10.327 10.327 0 00-4.07-.76 9.787 9.787 0 00-4 .79 8.347 8.347 0 00-3 2.17 9.245 9.245 0 00-1.86 3.29 13.007 13.007 0 00-.65 4.17l.02 13.4zm42.62-11.57a2.53 2.53 0 00-1 .21 2.39 2.39 0 00-.82.59 2.7 2.7 0 00-.54 2.85c.122.316.306.605.54.85a2.534 2.534 0 001.82.78h2.14v2.15a7.27 7.27 0 01-2.36 1.22 9.923 9.923 0 01-2.58.33 7.842 7.842 0 01-3.15-.63 7.84 7.84 0 01-4.17-4.25 7.681 7.681 0 01-.61-3.05 7.941 7.941 0 012.29-5.62 7.993 7.993 0 012.48-1.68 7.65 7.65 0 013-.6 8.168 8.168 0 013 .56 7.674 7.674 0 012.74 1.72c.236.241.518.432.83.56.302.12.625.181.95.18a2.611 2.611 0 001-.22 2.89 2.89 0 00.86-.58 2.74 2.74 0 00.58-.84 2.29 2.29 0 00.22-1 2.467 2.467 0 00-.19-1 2.658 2.658 0 00-.58-.87 13.765 13.765 0 00-4.3-3 13.138 13.138 0 00-5.13-1 12.156 12.156 0 00-3.49.49 13 13 0 00-5.75 3.56 13.285 13.285 0 00-3.31 5.88 13.208 13.208 0 00-.46 3.51 12.7 12.7 0 00.48 3.51c.293 1.101.727 2.16 1.29 3.15a14.01 14.01 0 002.06 2.67 13.314 13.314 0 002.62 2 12.9 12.9 0 003.07 1.33 12.13 12.13 0 003.35.5 14.001 14.001 0 009.69-3.72c.245-.26.453-.553.62-.87a2.22 2.22 0 00.25-1.09v-6a2.53 2.53 0 00-.21-1 2.573 2.573 0 00-.57-.81 2.838 2.838 0 00-.85-.56 2.608 2.608 0 00-1-.21h-4.81zm27.08-10.38l-.08-.22a3.087 3.087 0 00-.36-.64l-.1-.09-.45-.41a1 1 0 00-.52-.29 2.01 2.01 0 00-.47-.15 2.66 2.66 0 00-.5 0h-.46c-.194.012-.383.06-.56.14h-.12a2.48 2.48 0 00-1 .71 2.74 2.74 0 00-.57 1l-7.91 20.62a2.902 2.902 0 000 2c.257.66.764 1.192 1.41 1.48.35.164.733.246 1.12.24a2.49 2.49 0 001.47-.46 2.825 2.825 0 001-1.23l.41-1.1h10.25l.43 1.1c.189.512.54.947 1 1.24.446.293.967.45 1.5.45a2.57 2.57 0 001.13-.24c.321-.145.609-.353.85-.61a2.9 2.9 0 00.54-.87 2.827 2.827 0 00-.01-2.07l-8-20.6zm-5.6 16.18l3-7.83 3 7.83h-6zm20.49 5.57c-.002.366.066.73.2 1.07.136.32.337.61.59.85a2.771 2.771 0 001.91.77 2.82 2.82 0 001.92-.77c.253-.24.453-.53.59-.85.142-.339.214-.703.21-1.07v-15.25a2.662 2.662 0 01.21-1.06c.148-.325.351-.623.6-.88.247-.251.543-.449.87-.58a2.694 2.694 0 011.07-.21 2.62 2.62 0 011.09.22c.324.131.617.329.86.58.244.255.437.553.57.88.138.347.206.717.2 1.09v3.42a2.69 2.69 0 00.21 1.07c.141.321.341.613.59.86.243.254.536.455.86.59.316.136.656.207 1 .21.361.002.718-.07 1.05-.21.327-.135.624-.336.87-.59.249-.247.449-.539.59-.86a2.88 2.88 0 00.2-1.07v-3.5c.019-.344.096-.682.23-1a2.8 2.8 0 01.56-.86 2.33 2.33 0 01.83-.57 2.59 2.59 0 011-.21c.367 0 .73.07 1.07.21.334.129.637.326.89.58.249.26.455.556.61.88.149.333.224.695.22 1.06v15.2a2.68 2.68 0 00.22 1.07c.14.316.336.604.58.85a2.771 2.771 0 001.93.77 2.78 2.78 0 001.91-.77 2.689 2.689 0 00.8-1.92v-15.45a7.947 7.947 0 00-.64-3.19 8.255 8.255 0 00-1.66-2.61 8.357 8.357 0 00-2.6-1.76 8.003 8.003 0 00-3.2-.65 7.49 7.49 0 00-3 .58 8.162 8.162 0 00-2.47 1.59 8.003 8.003 0 00-2.47-1.59 7.58 7.58 0 00-3-.58 7.912 7.912 0 00-3.19.65 8.2 8.2 0 00-4.94 7.56l.06 15.45zm37.99-23.64a1.18 1.18 0 00-.38.07 1.131 1.131 0 01-.37.07c-.54.18-1.007.532-1.33 1a2.68 2.68 0 00-.51 1.61v20.89c.001.342.065.681.19 1a2.66 2.66 0 001.39 1.41 2.5 2.5 0 001 .24h11.59a2.608 2.608 0 001-.21 2.84 2.84 0 00.85-.56 2.691 2.691 0 00.78-1.92 2.665 2.665 0 00-.21-1 2.9 2.9 0 00-.57-.88 2.767 2.767 0 00-.85-.59 2.61 2.61 0 00-1-.21H264v-4.91h6.17c.362.004.72-.071 1.05-.22.32-.139.611-.335.86-.58.241-.255.438-.549.58-.87a2.69 2.69 0 000-2.13 2.865 2.865 0 00-.58-.88 2.691 2.691 0 00-.86-.59 2.5 2.5 0 00-1.05-.22H264v-5h8.76a2.619 2.619 0 001-.22c.314-.149.601-.348.85-.59.242-.252.435-.547.57-.87.139-.336.211-.696.21-1.06a2.822 2.822 0 00-.78-2 3.006 3.006 0 00-.85-.59 2.46 2.46 0 00-1-.22l-11.58.03zM22.33 29.223c3.629 0 6.57-2.964 6.57-6.62s-2.941-6.62-6.57-6.62c-3.628 0-6.57 2.964-6.57 6.62s2.941 6.62 6.57 6.62z" fill="#fff"/></g><defs><clipPath id="clip0_37_394"><path fill="#fff" transform="translate(0 .983)" d="M0 0h275.44v44.99H0z"/></clipPath></defs></svg>