<svg width="53" height="31" viewBox="0 0 53 31" fill="none" xmlns="http://www.w3.org/2000/svg">
<path d="M27.648 15.176C28.1387 15.176 28.4907 15.2827 28.704 15.496C28.9387 15.7093 29.056 15.9867 29.056 16.328C29.056 16.8827 28.8853 17.3733 28.544 17.8C28.224 18.2267 27.712 18.4507 27.008 18.472C25.3013 18.5147 23.7867 18.3867 22.464 18.088C20.9493 21.2667 19.1147 23.912 16.96 26.024C14.8267 28.1147 12.6827 29.16 10.528 29.16C8.30933 29.16 6.656 27.8693 5.568 25.288C4.48 22.7067 3.936 19.2187 3.936 14.824C3.936 11.0693 4.20267 7.69867 4.736 4.712C4.928 3.60266 5.19467 2.856 5.536 2.472C5.89867 2.06667 6.50667 1.864 7.36 1.864C8.768 1.864 9.472 2.472 9.472 3.688C9.472 3.816 9.45067 4.05067 9.408 4.392C8.768 8.232 8.448 11.7093 8.448 14.824C8.448 18.088 8.71467 20.5733 9.248 22.28C9.80267 23.9653 10.624 24.808 11.712 24.808C12.8213 24.808 14.0267 24.04 15.328 22.504C16.6293 20.968 17.824 19.0373 18.912 16.712C17.6107 15.9013 16.6293 14.856 15.968 13.576C15.3067 12.2747 14.976 10.7813 14.976 9.096C14.976 7.41067 15.232 5.992 15.744 4.84C16.2773 3.66666 16.992 2.792 17.888 2.216C18.8053 1.64 19.8187 1.352 20.928 1.352C22.2933 1.352 23.3707 1.84267 24.16 2.824C24.9707 3.80533 25.376 5.14933 25.376 6.856C25.376 9.30933 24.8427 11.9867 23.776 14.888C24.9067 15.08 26.1973 15.176 27.648 15.176ZM18.208 8.872C18.208 10.9627 18.88 12.5093 20.224 13.512C21.056 11.1227 21.472 9.14933 21.472 7.592C21.472 6.696 21.3547 6.04533 21.12 5.64C20.8853 5.21333 20.5653 5 20.16 5C19.584 5 19.1147 5.34133 18.752 6.024C18.3893 6.68533 18.208 7.63467 18.208 8.872ZM52.1823 8.52C52.1823 10.3333 51.5423 11.9013 50.2623 13.224C48.9823 14.5253 47.1156 15.464 44.6623 16.04C45.9849 16.4027 46.9876 17 47.6703 17.832C48.3529 18.6427 48.6943 19.5813 48.6943 20.648C48.6943 22.3333 48.1609 23.7947 47.0943 25.032C46.0489 26.2693 44.5129 27.2293 42.4862 27.912C40.4596 28.5733 38.0169 28.904 35.1583 28.904C34.0916 28.904 33.2383 28.872 32.5983 28.808C32.5769 29.4053 32.3209 29.8533 31.8303 30.152C31.3396 30.4507 30.7103 30.6 29.9423 30.6C29.1743 30.6 28.6409 30.4293 28.3423 30.088C28.0649 29.7467 27.9476 29.2453 27.9903 28.584C28.1823 25.5973 28.5556 22.472 29.1102 19.208C29.6649 15.9227 30.3689 12.7547 31.2223 9.704C31.3716 9.17067 31.6703 8.79733 32.1183 8.584C32.5663 8.37067 33.1529 8.264 33.8783 8.264C35.1796 8.264 35.8303 8.62667 35.8303 9.352C35.8303 9.65067 35.7663 9.992 35.6383 10.376C35.0836 12.04 34.5289 14.3013 33.9743 17.16C33.4196 19.9973 33.0249 22.7067 32.7903 25.288C33.8143 25.3733 34.6463 25.416 35.2863 25.416C38.2729 25.416 40.4596 24.9893 41.8463 24.136C43.2543 23.2613 43.9583 22.152 43.9583 20.808C43.9583 19.8693 43.5529 19.08 42.7423 18.44C41.9529 17.8 40.6196 17.448 38.7423 17.384C38.3156 17.3627 38.0169 17.256 37.8463 17.064C37.6756 16.872 37.5903 16.5627 37.5903 16.136C37.5903 15.5173 37.7183 15.016 37.9743 14.632C38.2303 14.248 38.6996 14.0453 39.3823 14.024C40.8969 13.9813 42.2623 13.7573 43.4783 13.352C44.7156 12.9467 45.6863 12.3813 46.3903 11.656C47.0943 10.9093 47.4463 10.0453 47.4463 9.064C47.4463 7.82667 46.8383 6.856 45.6223 6.152C44.4063 5.42667 42.5396 5.064 40.0223 5.064C37.7396 5.064 35.5316 5.36267 33.3983 5.96C31.2649 6.536 29.4516 7.272 27.9583 8.168C27.2756 8.57333 26.6996 8.776 26.2303 8.776C25.8463 8.776 25.5476 8.648 25.3343 8.392C25.1423 8.11467 25.0463 7.77333 25.0463 7.368C25.0463 6.83467 25.1529 6.376 25.3663 5.992C25.6009 5.608 26.1449 5.17067 26.9983 4.68C28.7903 3.656 30.8916 2.856 33.3023 2.28C35.7129 1.704 38.1769 1.416 40.6943 1.416C44.5556 1.416 47.4356 2.06667 49.3343 3.368C51.2329 4.66933 52.1823 6.38667 52.1823 8.52Z" fill="white"/>
</svg>
